<svg xmlns="http://www.w3.org/2000/svg" width="32" height="32" viewBox="0 0 32 32">
  <metadata><?xpacket begin="﻿" id="W5M0MpCehiHzreSzNTczkc9d"?>
<x:xmpmeta xmlns:x="adobe:ns:meta/" x:xmptk="Adobe XMP Core 5.6-c138 79.159824, 2016/09/14-01:09:01        ">
   <rdf:RDF xmlns:rdf="http://www.w3.org/1999/02/22-rdf-syntax-ns#">
      <rdf:Description rdf:about=""/>
   </rdf:RDF>
</x:xmpmeta>
                                                                                                    
                                                                                                    
                                                                                                    
                                                                                                    
                                                                                                    
                                                                                                    
                                                                                                    
                                                                                                    
                                                                                                    
                                                                                                    
                                                                                                    
                                                                                                    
                                                                                                    
                                                                                                    
                                                                                                    
                                                                                                    
                                                                                                    
                                                                                                    
                                                                                                    
                                                                                                    
                           
<?xpacket end="w"?></metadata>
<defs>
    <style>
      .cls-1 {
        fill: #4f4f4f;
        fill-rule: evenodd;
      }
    </style>
  </defs>
  <path id="twitter_-_off" data-name="twitter - off" class="cls-1" d="M145.32,174.477c0.011,0.238.015,0.48,0.015,0.718,0,7.339-5.358,15.8-15.156,15.8a14.634,14.634,0,0,1-8.167-2.5,10.418,10.418,0,0,0,7.886-2.3,5.366,5.366,0,0,1-4.976-3.855,5.246,5.246,0,0,0,1,.1,5.119,5.119,0,0,0,1.4-.193,5.5,5.5,0,0,1-4.273-5.446v-0.069a5.16,5.16,0,0,0,2.413.7,5.618,5.618,0,0,1-2.371-4.623,5.7,5.7,0,0,1,.723-2.792,14.929,14.929,0,0,0,10.98,5.8,5.863,5.863,0,0,1-.136-1.267A5.44,5.44,0,0,1,139.989,169a5.222,5.222,0,0,1,3.89,1.752,10.489,10.489,0,0,0,3.383-1.348,5.54,5.54,0,0,1-2.343,3.071,10.323,10.323,0,0,0,3.059-.873A11.021,11.021,0,0,1,145.32,174.477Z" transform="translate(-118.984 -164)"/>
</svg>
